<svg width="32" height="33" viewBox="0 0 32 33" fill="none" xmlns="http://www.w3.org/2000/svg">
<g id="Group 2455">
<g id="shape">
<path d="M31.14 16.2621L19.0039 3.16599C17.4209 1.45779 14.719 1.45779 13.1361 3.16599L1 16.2621H31.14Z" fill="black"/>
<path d="M5.11 31.6855L4.97956 16.9481H27.03V31.6855H19.495C19.3506 25.9043 19.495 22.8432 16.07 22.8432C12.645 22.8432 12.645 25.0536 12.645 31.6855H5.11Z" fill="black"/>
<path d="M31.14 16.2621L19.0039 3.16599C17.4209 1.45779 14.719 1.45779 13.1361 3.16599L1 16.2621H31.14Z" stroke="black" stroke-width="1.5" stroke-linecap="round" stroke-linejoin="round"/>
<path d="M5.11 31.6855L4.97956 16.9481H27.03V31.6855H19.495C19.3506 25.9043 19.495 22.8432 16.07 22.8432C12.645 22.8432 12.645 25.0536 12.645 31.6855H5.11Z" stroke="black" stroke-width="1.5" stroke-linecap="round" stroke-linejoin="round"/>
</g>
</g>
</svg>
